# xmcd
#
# Track frame offsets: 
#        150
#        19318
#        38478
#        53673
#        77019
#        97852
#        111206
#        128128
#        152914
#        171569
#        188868
#        215582
#        236473
#        256723
#        274823
#        295898
#        315508
#        336026
#
# Disc length: 4756 seconds
#
# Revision: 0
# Processed by: cddbd v1.5.2PL0 Copyright (c) Steve Scherf et al.
# Submitted via: ExactAudioCopy v0.99pb4
#
DISCID=f5129212
DTITLE=Various Artist - Cao_Yuan_Ge_Qu
DYEAR=2008
DGENRE=Ballad
TTITLE0=自由飞翔
TTITLE1=鸿雁
TTITLE2=遇上你是我的缘
TTITLE3=牵手草原
TTITLE4=万物生
TTITLE5=欢乐的玩吧
TTITLE6=美丽的草原我的家
TTITLE7=卓玛
TTITLE8=雕花的马鞍
TTITLE9=呼伦贝尔大草原
TTITLE10=敖包下的思念
TTITLE11=送亲歌
TTITLE12=诺恩吉亚
TTITLE13=我从草原来
TTITLE14=苍天般的阿拉善
TTITLE15=绿色的草地
TTITLE16=如梦草原
TTITLE17=蓝色的蒙古高原
EXTD=
EXTT0=
EXTT1=
EXTT2=
EXTT3=
EXTT4=
EXTT5=
EXTT6=
EXTT7=
EXTT8=
EXTT9=
EXTT10=
EXTT11=
EXTT12=
EXTT13=
EXTT14=
EXTT15=
EXTT16=
EXTT17=
PLAYORDER=
